<svg xmlns="http://www.w3.org/2000/svg" viewBox="0 0 574 200" width="574" height="200" xmlns:c2pa="http://c2pa.org/manifest"><metadata><c2pa:manifest>AAAWgmp1bWIAAAAeanVtZGMycGEAEQAQgAAAqgA4m3EDYzJwYQAAABZcanVtYgAAAEdqdW1kYzJtYQARABCAAACqADibcQN1cm46YzJwYTo4YTExZWZlNS03YTk0LTQwZWItYTIzMy0zODk3ZGY1N2FlMGUAAAADl2p1bWIAAAApanVtZGMyYXMAEQAQgAAAqgA4m3EDYzJwYS5hc3NlcnRpb25zAAAAALxqdW1iAAAARGp1bWRjYm9yABEAEIAAAKoAOJtxE2MycGEuaW5ncmVkaWVudC52MwAAAAAYYzJzaA59tO1umArxIdyOLCzSklgAAABwY2JvcqNpZGM6Zm9ybWF0bWltYWdlL3N2Zyt4bWxqaW5zdGFuY2VJRHgseG1wOmlpZDo1ZWQzZjJjMC1iOWNjLTQ2MTQtOGFiMS00NmJjNDZiZDEyNjdscmVsYXRpb25zaGlwaHBhcmVudE9mAAAB4mp1bWIAAABBanVtZGNib3IAEQAQgAAAqgA4m3ETYzJwYS5hY3Rpb25zLnYyAAAAABhjMnNoFLzQKlrWEgMxTlsVkgnrEQAAAZljYm9yomdhY3Rpb25zgqJmYWN0aW9ua2MycGEub3BlbmVkanBhcmFtZXRlcnOha2luZ3JlZGllbnRzgaJjdXJseC1zZWxmI2p1bWJmPWMycGEuYXNzZXJ0aW9ucy9jMnBhLmluZ3JlZGllbnQudjNkaGFzaFggNGq7Tpp135uZWctiv0uEyTo+8lZ/YmQI99IuG5wAbAGkZmFjdGlvbngdY29tLmFudGhyb3BpYy5jbGF1ZGUucHJvdmlkZWRqcGFyYW1ldGVyc6F4H2NvbS5hbnRocm9waWMub3JpZ2luLWNvbmZpZGVuY2VndW5rbm93bmtkZXNjcmlwdGlvbnhmQ2xhdWRlIHByb3ZpZGVkIHRoaXMgZmlsZSBhdCB0aGUgcmVxdWVzdCBvZiBhIHVzZXIgYW5kIG1heSBoYXZlIGNyZWF0ZWQgb3IgbW9kaWZpZWQgdGhlIGZpbGUgY29udGVudHMubXNvZnR3YXJlQWdlbnShZG5hbWVmQ2xhdWRlcmFsbEFjdGlvbnNJbmNsdWRlZPUAAADIanVtYgAAAEBqdW1kY2JvcgARABCAAACqADibcRNjMnBhLmhhc2guZGF0YQAAAAAYYzJzaO6o35qtRiuGQDweI+MU++0AAACAY2JvcqVjYWxnZnNoYTI1NmNwYWRNAAAAAAAAAAAAAAAAAGRoYXNoWCDkY9MYj6/TWtMnX/DtazeNzaGGsP7ws898ScuaLD6ZJGRuYW1lbmp1bWJmIG1hbmlmZXN0amV4Y2x1c2lvbnOBomVzdGFydBiWZmxlbmd0aBkeBAAAAj5qdW1iAAAAJ2p1bWRjMmNsABEAEIAAAKoAOJtxA2MycGEuY2xhaW0udjIAAAACD2Nib3KlY2FsZ2ZzaGEyNTZpc2lnbmF0dXJleE1zZWxmI2p1bWJmPS9jMnBhL3VybjpjMnBhOjhhMTFlZmU1LTdhOTQtNDBlYi1hMjMzLTM4OTdkZjU3YWUwZS9jMnBhLnNpZ25hdHVyZWppbnN0YW5jZUlEeCx4bXA6aWlkOmJhNzQxZjQwLTAxZGEtNGE3My1iYjkzLWE5NmQwOTNjZTFlZHJjcmVhdGVkX2Fzc2VydGlvbnODomN1cmx4LXNlbGYjanVtYmY9YzJwYS5hc3NlcnRpb25zL2MycGEuaW5ncmVkaWVudC52M2RoYXNoWCA0artOmnXfm5lZy2K/S4TJOj7yVn9iZAj30i4bnABsAaJjdXJseCpzZWxmI2p1bWJmPWMycGEuYXNzZXJ0aW9ucy9jMnBhLmFjdGlvbnMudjJkaGFzaFggqlUKPDDx/5DikDc/HCR4Ofd9bIZGO/8VhGiWYBmNL4+iY3VybHgpc2VsZiNqdW1iZj1jMnBhLmFzc2VydGlvbnMvYzJwYS5oYXNoLmRhdGFkaGFzaFggfIBRbS+82Lil3oawOScq61DXMMhWLhv0KNC30SAucKV0Y2xhaW1fZ2VuZXJhdG9yX2luZm+jZG5hbWVvQW50aHJvcGljIEZpbGVzZ3ZlcnNpb25lMS4wLjBrc3BlY1ZlcnNpb25lMi40LjAAABA4anVtYgAAAChqdW1kYzJjcwARABCAAACqADibcQNjMnBhLnNpZ25hdHVyZQAAABAIY2JvctKEWQISogEmGCFZAgowggIGMIIBjaADAgECAhRA5aAK7sI50L64g/oGQgU9Z1UTADAKBggqhkjOPQQDAzBJMRcwFQYDVQQKEw5BbnRocm9waWMsIFBCQzEuMCwGA1UEAxMlQW50aHJvcGljIENvbnRlbnQgQ3JlZGVudGlhbHMgUm9vdCBDQTAeFw0yNjA4MDcxODQzNTZaFw0yODA4MDYxOTQzNTZaMEQxFzAVBgNVBAoTDkFudGhyb3BpYywgUEJDMSkwJwYDVQQDEyBBbnRocm9waWMgQ2xhdWRlIENvbnRlbnQgU2lnbmluZzBZMBMGByqGSM49AgEGCCqGSM49AwEHA0IABJh6CmvLUBgFFNU0vUKlOVtE6djd17L5SuwX0LemFisBM3dkd/3cyjxFA3Qo5S46fX0/ihY0VZ7mfb9KF703t5OjWDBWMA4GA1UdDwEB/wQEAwIHgDAVBgNVHSUEDjAMBgorBgEEAYPoXgIBMAwGA1UdEwEB/wQCMAAwHwYDVR0jBBgwFoAUzlHiBIFOZFsj+OPEz5o+nMHXXMIwCgYIKoZIzj0EAwMDZwAwZAIwMXMdFJ4BetLLVY7ORuE9noqbbAZOZn/aArXyTwFAZfKrPzxF2vPoJNf1+UCdg1XGAjBwX1zd9WGqYkqmL5SFqw1QySjr1zJfpJM9+1rdDwSPLMOPOjKuiXjoU/pUUeG9RwmhY3BhZFkNngAAAAAAAAAAAAAAAAAAAAAAAAAAAAAAAAAAAAAAAAAAAAAAAAAAAAAAAAAAAAAAAAAAAAAAAAAAAAAAAAAAAAAAAAAAAAAAAAAAAAAAAAAAAAAAAAAAAAAAAAAAAAAAAAAAAAAAAAAAAAAAAAAAAAAAAAAAAAAAAAAAAAAAAAAAAAAAAAAAAAAAAAAAAAAAAAAAAAAAAAAAAAAAAAAAAAAAAAAAAAAAAAAAAAAAAAAAAAAAAAAAAAAAAAAAAAAAAAAAAAAAAAAAAAAAAAAAAAAAAAAAAAAAAAAAAAAAAAAAAAAAAAAAAAAAAAAAAAAAAAAAAAAAAAAAAAAAAAAAAAAAAAAAAAAAAAAAAAAAAAAAAAAAAAAAAAAAAAAAAAAAAAAAAAAAAAAAAAAAAAAAAAAAAAAAAAAAAAAAAAAAAAAAAAAAAAAAAAAAAAAAAAAAAAAAAAAAAAAAAAAAAAAAAAAAAAAAAAAAAAAAAAAAAAAAAAAAAAAAAAAAAAAAAAAAAAAAAAAAAAAAAAAAAAAAAAAAAAAAAAAAAAAAAAAAAAAAAAAAAAAAAAAAAAAAAAAAAAAAAAAAAAAAAAAAAAAAAAAAAAAAAAAAAAAAAAAAAAAAAAAAAAAAAAAAAAAAAAAAAAAAAAAAAAAAAAAAAAAAAAAAAAAAAAAAAAAAAAAAAAAAAAAAAAAAAAAAAAAAAAAAAAAAAAAAAAAAAAAAAAAAAAAAAAAAAAAAAAAAAAAAAAAAAAAAAAAAAAAAAAAAAAAAAAAAAAAAAAAAAAAAAAAAAAAAAAAAAAAAAAAAAAAAAAAAAAAAAAAAAAAAAAAAAAAAAAAAAAAAAAAAAAAAAAAAAAAAAAAAAAAAAAAAAAAAAAAAAAAAAAAAAAAAAAAAAAAAAAAAAAAAAAAAAAAAAAAAAAAAAAAAAAAAAAAAAAAAAAAAAAAAAAAAAAAAAAAAAAAAAAAAAAAAAAAAAAAAAAAAAAAAAAAAAAAAAAAAAAAAAAAAAAAAAAAAAAAAAAAAAAAAAAAAAAAAAAAAAAAAAAAAAAAAAAAAAAAAAAAAAAAAAAAAAAAAAAAAAAAAAAAAAAAAAAAAAAAAAAAAAAAAAAAAAAAAAAAAAAAAAAAAAAAAAAAAAAAAAAAAAAAAAAAAAAAAAAAAAAAAAAAAAAAAAAAAAAAAAAAAAAAAAAAAAAAAAAAAAAAAAAAAAAAAAAAAAAAAAAAAAAAAAAAAAAAAAAAAAAAAAAAAAAAAAAAAAAAAAAAAAAAAAAAAAAAAAAAAAAAAAAAAAAAAAAAAAAAAAAAAAAAAAAAAAAAAAAAAAAAAAAAAAAAAAAAAAAAAAAAAAAAAAAAAAAAAAAAAAAAAAAAAAAAAAAAAAAAAAAAAAAAAAAAAAAAAAAAAAAAAAAAAAAAAAAAAAAAAAAAAAAAAAAAAAAAAAAAAAAAAAAAAAAAAAAAAAAAAAAAAAAAAAAAAAAAAAAAAAAAAAAAAAAAAAAAAAAAAAAAAAAAAAAAAAAAAAAAAAAAAAAAAAAAAAAAAAAAAAAAAAAAAAAAAAAAAAAAAAAAAAAAAAAAAAAAAAAAAAAAAAAAAAAAAAAAAAAAAAAAAAAAAAAAAAAAAAAAAAAAAAAAAAAAAAAAAAAAAAAAAAAAAAAAAAAAAAAAAAAAAAAAAAAAAAAAAAAAAAAAAAAAAAAAAAAAAAAAAAAAAAAAAAAAAAAAAAAAAAAAAAAAAAAAAAAAAAAAAAAAAAAAAAAAAAAAAAAAAAAAAAAAAAAAAAAAAAAAAAAAAAAAAAAAAAAAAAAAAAAAAAAAAAAAAAAAAAAAAAAAAAAAAAAAAAAAAAAAAAAAAAAAAAAAAAAAAAAAAAAAAAAAAAAAAAAAAAAAAAAAAAAAAAAAAAAAAAAAAAAAAAAAAAAAAAAAAAAAAAAAAAAAAAAAAAAAAAAAAAAAAAAAAAAAAAAAAAAAAAAAAAAAAAAAAAAAAAAAAAAAAAAAAAAAAAAAAAAAAAAAAAAAAAAAAAAAAAAAAAAAAAAAAAAAAAAAAAAAAAAAAAAAAAAAAAAAAAAAAAAAAAAAAAAAAAAAAAAAAAAAAAAAAAAAAAAAAAAAAAAAAAAAAAAAAAAAAAAAAAAAAAAAAAAAAAAAAAAAAAAAAAAAAAAAAAAAAAAAAAAAAAAAAAAAAAAAAAAAAAAAAAAAAAAAAAAAAAAAAAAAAAAAAAAAAAAAAAAAAAAAAAAAAAAAAAAAAAAAAAAAAAAAAAAAAAAAAAAAAAAAAAAAAAAAAAAAAAAAAAAAAAAAAAAAAAAAAAAAAAAAAAAAAAAAAAAAAAAAAAAAAAAAAAAAAAAAAAAAAAAAAAAAAAAAAAAAAAAAAAAAAAAAAAAAAAAAAAAAAAAAAAAAAAAAAAAAAAAAAAAAAAAAAAAAAAAAAAAAAAAAAAAAAAAAAAAAAAAAAAAAAAAAAAAAAAAAAAAAAAAAAAAAAAAAAAAAAAAAAAAAAAAAAAAAAAAAAAAAAAAAAAAAAAAAAAAAAAAAAAAAAAAAAAAAAAAAAAAAAAAAAAAAAAAAAAAAAAAAAAAAAAAAAAAAAAAAAAAAAAAAAAAAAAAAAAAAAAAAAAAAAAAAAAAAAAAAAAAAAAAAAAAAAAAAAAAAAAAAAAAAAAAAAAAAAAAAAAAAAAAAAAAAAAAAAAAAAAAAAAAAAAAAAAAAAAAAAAAAAAAAAAAAAAAAAAAAAAAAAAAAAAAAAAAAAAAAAAAAAAAAAAAAAAAAAAAAAAAAAAAAAAAAAAAAAAAAAAAAAAAAAAAAAAAAAAAAAAAAAAAAAAAAAAAAAAAAAAAAAAAAAAAAAAAAAAAAAAAAAAAAAAAAAAAAAAAAAAAAAAAAAAAAAAAAAAAAAAAAAAAAAAAAAAAAAAAAAAAAAAAAAAAAAAAAAAAAAAAAAAAAAAAAAAAAAAAAAAAAAAAAAAAAAAAAAAAAAAAAAAAAAAAAAAAAAAAAAAAAAAAAAAAAAAAAAAAAAAAAAAAAAAAAAAAAAAAAAAAAAAAAAAAAAAAAAAAAAAAAAAAAAAAAAAAAAAAAAAAAAAAAAAAAAAAAAAAAAAAAAAAAAAAAAAAAAAAAAAAAAAAAAAAAAAAAAAAAAAAAAAAAAAAAAAAAAAAAAAAAAAAAAAAAAAAAAAAAAAAAAAAAAAAAAAAAAAAAAAAAAAAAAAAAAAAAAAAAAAAAAAAAAAAAAAAAAAAAAAAAAAAAAAAAAAAAAAAAAAAAAAAAAAAAAAAAAAAAAAAAAAAAAAAAAAAAAAAAAAAAAAAAAAAAAAAAAAAAAAAAAAAAAAAAAAAAAAAAAAAAAAAAAAAAAAAAAAAAAAAAAAAAAAAAAAAAAAAAAAAAAAAAAAAAAAAAAAAAAAAAAAAAAAAAAAAAAAAAAAAAAAAAAAAAAAAAAAAAAAAAAAAAAAAAAAAAAAAAAAAAAAAAAAAAAAAAAAAAAAAAAAAAAAAAAAAAAAAAAAAAAAAAAAAAAAAAAAAAAAAAAAAAAAAAAAAAAAAAAAAAAAAAAAAAAAAAAAAAAAAAAAAAAAAAAAAAAAAAAAAAAAAAAAAAAAAAAAAAAAAAAAAAAAAAAAAAAAAAAAAAAAAAAAAAAAAAAAAAAAAAAAAAAAAAAAAAAAAAAAAAAAAAAAAAAAAAAAAAAAAAAAAAAAAAAAAAAAAAAAAAAAAAAAAAAAAAAAAAAAAAAAAAAAAAAAAAAAAAAAAAAAAAAAAAAAAAAAAAAAAAAAAAAAAAAAAAAAAAAAAAAAAAAAAAAAAAAAAAAAAAAAAAAAAAAAAAAAAAAAAAAAAAAAAAAAAAAAAAAAAAAAAAAAAAAAAAAAAAAAAAAAAAAAAAAAAAAAAAAAAAAAAAAAAAAAAAAAAAAAAAAAAAAAAAAAAAAAAAAAAAAAAAAAAAAAAAAAAAAAAAAAAAAAAAAAAAAAAAAAAAAAAAAAAAAAAAAAAAAAAAAAAAAAAAAAAAAAAAAAAAAAAAAAAAAAAAAAAAAAAAAAAAAAAAAAAAAAAAAAAAAAAAAAAAAAAAAAAAAAAAAAAAAAAAAAAAAAAAAAAAAAAAAAAAAAAAAAAAAAAAAAAAAAAAAAAAAAAAAAAAAAAAAAAAAAAAAAAAAAAAAAAAAAAAAAAAAAAAAAAAAAAAAAAAAAAAAAAAAAAAAAAAAAAAAAAAAAAAAAAAAAAAAAAAAAAAAAAAAAAAAAAAAAAAAAAAAAAAAAAAAAAAAAAAAAAAAAAAAAAAAAAAAAAAAAAAAAAAAAAAAAAAAAAAAAAAAAAAAAAAAAAAAAAAAAAAAAAAAAAAAAAAAAAAAAAAAAAAAAAAAAAAAAAAAAAAAAAAAAAAAAAAAAAAAAAAAAAAAAAAAAAAAAAAAAAAAAAAAAAAAAAAAAAAAAAAAAAAAAAAAAAAAAAAAAAAAAAAAAAAAAAAAAAAAAAAAAAAAAAAAAAAAAAAAAAAAAAAAAAAAAAAAAAAAAAAAAAAAAAAAAAAAAAAAAAAAAAAAAAAAAAAAAAAAAAAAAAAAAAAAAAAAAAAAAAAAAAAAAAAAAAAAAAAAAAAAAAAAAAAAAAAAAAAAAAAAAAAAAAAAAAAAAAAAAAAAAAAAAAAAAAAAAAAAAAAAAAAAAAAAAAAAAAAAAAAAAAAAAAAAAAAAAAAAAAAAAPZYQLm9UkqjSHji968r0rF/7wHwa2MCC1y7yn0Pj1CWxcPV92n3qx1gK/VkdL08UErLbX80iCmvlkWkCm/7n9fql54=</c2pa:manifest></metadata><path d="M22.00,40.00 L23.65,40.00 L25.30,40.00 L26.95,40.00 L28.60,40.00 L30.25,40.00 L31.90,40.00 L33.55,40.00 L35.20,40.00 L36.85,40.00 L38.50,40.00 L40.15,40.00 L41.80,40.00 L43.45,40.00 L45.10,40.00 L46.75,40.00 L48.40,40.00 L50.05,40.00 L51.70,40.00 L53.35,40.00 L55.00,40.00 L56.65,39.27 L58.30,35.62 L59.95,32.10 L61.60,28.78 L63.25,25.76 L64.90,23.13 L66.55,20.94 L68.20,19.27 L69.85,18.15 L71.50,17.61 L73.15,17.67 L74.80,18.32 L76.45,19.56 L78.10,21.34 L79.75,23.62 L81.40,26.34 L83.05,29.42 L84.70,32.79 L86.35,36.34 L88.00,40.00 L89.65,43.66 L91.30,47.21 L92.95,50.58 L94.60,53.66 L96.25,56.38 L97.90,58.66 L99.55,60.44 L101.20,61.68 L102.85,62.33 L104.50,62.39 L106.15,61.85 L107.80,60.73 L109.45,59.06 L111.10,56.87 L112.75,54.24 L114.40,51.22 L116.05,47.90 L117.70,44.38 L119.35,40.73 L121.00,40.00 L122.65,40.00 L124.30,40.00 L125.95,40.00 L127.60,40.00 L129.25,40.00 L130.90,40.00 L132.55,40.00 L134.20,40.00 L135.85,40.00 L137.50,40.00 L139.15,40.00 L140.80,40.00 L142.45,40.00 L144.10,40.00 L145.75,40.00 L147.40,40.00 L149.05,40.00 L150.70,40.00 L152.35,40.00 L154.00,40.00 L154.00,41.65 L154.00,43.30 L154.00,44.95 L154.00,46.60 L154.00,48.25 L154.00,49.90 L154.00,51.55 L154.00,53.20 L154.00,54.85 L154.00,56.50 L154.00,58.15 L154.00,59.80 L154.00,61.45 L154.00,63.10 L154.00,64.75 L154.00,66.40 L154.00,68.05 L154.00,69.70 L154.00,71.35 L154.00,73.00 L154.73,74.65 L158.38,76.30 L161.90,77.95 L165.22,79.60 L168.24,81.25 L170.87,82.90 L173.06,84.55 L174.73,86.20 L175.85,87.85 L176.39,89.50 L176.33,91.15 L175.68,92.80 L174.44,94.45 L172.66,96.10 L170.38,97.75 L167.66,99.40 L164.58,101.05 L161.21,102.70 L157.66,104.35 L154.00,106.00 L150.34,107.65 L146.79,109.30 L143.42,110.95 L140.34,112.60 L137.62,114.25 L135.34,115.90 L133.56,117.55 L132.32,119.20 L131.67,120.85 L131.61,122.50 L132.15,124.15 L133.27,125.80 L134.94,127.45 L137.13,129.10 L139.76,130.75 L142.78,132.40 L146.10,134.05 L149.62,135.70 L153.27,137.35 L154.00,139.00 L154.00,140.65 L154.00,142.30 L154.00,143.95 L154.00,145.60 L154.00,147.25 L154.00,148.90 L154.00,150.55 L154.00,152.20 L154.00,153.85 L154.00,155.50 L154.00,157.15 L154.00,158.80 L154.00,160.45 L154.00,162.10 L154.00,163.75 L154.00,165.40 L154.00,167.05 L154.00,168.70 L154.00,170.35 L154.00,172.00 L152.35,172.00 L150.70,172.00 L149.05,172.00 L147.40,172.00 L145.75,172.00 L144.10,172.00 L142.45,172.00 L140.80,172.00 L139.15,172.00 L137.50,172.00 L135.85,172.00 L134.20,172.00 L132.55,172.00 L130.90,172.00 L129.25,172.00 L127.60,172.00 L125.95,172.00 L124.30,172.00 L122.65,172.00 L121.00,172.00 L119.35,172.00 L117.70,172.00 L116.05,172.00 L114.40,172.00 L112.75,172.00 L111.10,172.00 L109.45,172.00 L107.80,172.00 L106.15,172.00 L104.50,172.00 L102.85,172.00 L101.20,172.00 L99.55,172.00 L97.90,172.00 L96.25,172.00 L94.60,172.00 L92.95,172.00 L91.30,172.00 L89.65,172.00 L88.00,172.00 L86.35,172.00 L84.70,172.00 L83.05,172.00 L81.40,172.00 L79.75,172.00 L78.10,172.00 L76.45,172.00 L74.80,172.00 L73.15,172.00 L71.50,172.00 L69.85,172.00 L68.20,172.00 L66.55,172.00 L64.90,172.00 L63.25,172.00 L61.60,172.00 L59.95,172.00 L58.30,172.00 L56.65,172.00 L55.00,172.00 L53.35,172.00 L51.70,172.00 L50.05,172.00 L48.40,172.00 L46.75,172.00 L45.10,172.00 L43.45,172.00 L41.80,172.00 L40.15,172.00 L38.50,172.00 L36.85,172.00 L35.20,172.00 L33.55,172.00 L31.90,172.00 L30.25,172.00 L28.60,172.00 L26.95,172.00 L25.30,172.00 L23.65,172.00 L22.00,172.00 L22.00,170.35 L22.00,168.70 L22.00,167.05 L22.00,165.40 L22.00,163.75 L22.00,162.10 L22.00,160.45 L22.00,158.80 L22.00,157.15 L22.00,155.50 L22.00,153.85 L22.00,152.20 L22.00,150.55 L22.00,148.90 L22.00,147.25 L22.00,145.60 L22.00,143.95 L22.00,142.30 L22.00,140.65 L22.00,139.00 L22.00,137.35 L22.00,135.70 L22.00,134.05 L22.00,132.40 L22.00,130.75 L22.00,129.10 L22.00,127.45 L22.00,125.80 L22.00,124.15 L22.00,122.50 L22.00,120.85 L22.00,119.20 L22.00,117.55 L22.00,115.90 L22.00,114.25 L22.00,112.60 L22.00,110.95 L22.00,109.30 L22.00,107.65 L22.00,106.00 L22.00,104.35 L22.00,102.70 L22.00,101.05 L22.00,99.40 L22.00,97.75 L22.00,96.10 L22.00,94.45 L22.00,92.80 L22.00,91.15 L22.00,89.50 L22.00,87.85 L22.00,86.20 L22.00,84.55 L22.00,82.90 L22.00,81.25 L22.00,79.60 L22.00,77.95 L22.00,76.30 L22.00,74.65 L22.00,73.00 L22.00,71.35 L22.00,69.70 L22.00,68.05 L22.00,66.40 L22.00,64.75 L22.00,63.10 L22.00,61.45 L22.00,59.80 L22.00,58.15 L22.00,56.50 L22.00,54.85 L22.00,53.20 L22.00,51.55 L22.00,49.90 L22.00,48.25 L22.00,46.60 L22.00,44.95 L22.00,43.30 L22.00,41.65Z" fill="#2A44D0"/><path transform="translate(200,146)" d="M2.271711015701294 0.905270390510559 0.799364218711853 -15.94131164073944Q1.969303593635559 -15.65490539073944 3.0624412107467647 -15.542903437614441Q4.155578827857971 -15.430901484489441 4.668851952552795 -15.430901484489441Q7.768686561584472 -15.430901484489441 9.68068089723587 -16.77601644515991Q11.592675232887268 -18.121131405830383 12.459389412403107 -21.094877264499665Q13.326103591918946 -24.068623123168944 13.326103591918946 -28.815474371910096V-79.2H31.711273670196533V-28.5082825756073Q31.711273670196533 -18.533520154953003 29.024535076618193 -11.962933280467986Q26.337796483039856 -5.392346405982971 20.76800550699234 -2.1273743748664855Q15.198214530944824 1.1375976562499999 6.490979375839233 1.1375976562499999Q5.2090278911590575 1.1375976562499999 4.297656641006469 1.0793544530868528Q3.3862853908538817 1.021111249923706 2.271711015701294 0.905270390510559Z M37.610245156288144 0.0V-63.285135469436646H55.77238218784332V0.0ZM46.629231562614436 -67.98460062503814Q41.48965351581573 -67.98460062503814 38.690585117340085 -70.16206257820129Q35.89151671886444 -72.33952453136443 35.89151671886444 -76.45211341305782Q35.89151671886444 -80.62645341321041 38.692861822591695 -82.82513709745908Q41.49420692631896 -85.02382078170776 46.62771080722271 -85.02382078170776Q51.88433023452758 -85.02382078170776 54.6565192580223 -82.79643644571303Q57.428708281517025 -80.56905210971831 57.428708281517025 -76.44613015651701Q57.428708281517025 -72.38892778798153 54.654852998256686 -70.18676420650984Q51.88099771499634 -67.98460062503814 46.629231562614436 -67.98460062503814Z M83.33523851394654 18.046765937805176Q74.52586226463318 18.046765937805176 69.20101382732392 16.449483633041382Q63.87616539001465 14.852201328277587 61.48655113220215 11.999078164100647Q59.09693687438965 9.145954999923706 59.09693687438965 5.318432421684265Q59.09693687438965 0.04707093715667725 63.033748397827154 -3.01852730512619Q66.97055992126465 -6.084125547409057 74.05699507713318 -6.9823687505722045V-7.783955469131469Q68.85153038978576 -7.991312656402588 65.46991691350937 -9.64941078186035Q62.088303437232966 -11.307508907318114 62.088303437232966 -14.876162266731262Q62.088303437232966 -18.20481562614441 65.12239687442779 -20.55203984498978Q68.15649031162262 -22.899264063835144 74.47941148281097 -23.335070157051085V-24.3069020318985Q68.08261070251464 -25.880350313186643 64.3616378903389 -30.549301836490628Q60.640665078163146 -35.218253359794616 60.640665078163146 -42.31457984447479Q60.640665078163146 -48.541782188415525 63.61940054655075 -53.2320199227333Q66.59813601493835 -57.922257657051084 72.24089238166809 -60.603696563243865Q77.88364874839783 -63.285135469436646 85.81011320114135 -63.285135469436646H112.94826390266418V-49.00979875087738L94.24284663677216 -51.86164039134979V-50.89300187587738Q102.55974155902862 -49.461005001068116 105.94151066064835 -46.20790371179581Q109.32327976226807 -42.9548024225235 109.32327976226807 -38.29339476585388Q109.32327976226807 -33.91260375022888 106.78006960630417 -30.08878222703934Q104.23685945034026 -26.26496070384979 99.0600264430046 -23.9324955868721Q93.88319343566894 -21.60003046989441 86.1093717956543 -21.60003046989441Q84.21237085819244 -21.60003046989441 82.13217148303985 -21.75139429807663Q80.05197210788727 -21.90275812625885 78.48843429565429 -22.371241407394407Q76.46797953128814 -21.470135235786437 75.37710386753082 -20.646145977973937Q74.2862282037735 -19.822156720161438 74.2862282037735 -19.00359797000885Q74.2862282037735 -18.474964141845703 74.81101804733277 -18.160887501239777Q75.33580789089203 -17.84681086063385 76.30107320308684 -17.726810860633847Q77.26633851528167 -17.60681086063385 78.5236057806015 -17.60681086063385H92.6073861694336Q95.20964265346527 -17.60681086063385 98.8853376531601 -17.337689259052276Q102.56103265285492 -17.0685676574707 106.12408523082733 -15.663282423019409Q109.68713780879975 -14.257997188568115 112.06154444932938 -11.058142461776733Q114.435951089859 -7.8582877349853515 114.435951089859 -1.9965012502670287Q114.435951089859 4.853443593978882 110.79849909782409 9.282737617492675Q107.16104710578918 13.712031641006469 100.24819847345351 15.879398789405823Q93.33534984111785 18.046765937805176 83.33523851394654 18.046765937805176ZM83.63123499870301 1.8997033596038817Q89.87162281036376 1.8997033596038817 92.99355632543563 1.361795039176941Q96.11548984050751 0.82388671875 97.18508183240891 -0.15912953138351443Q98.2546738243103 -1.1421457815170288 98.2546738243103 -2.4480277347564696Q98.2546738243103 -4.12032570362091 97.35051722288131 -5.022715938091277Q96.44636062145233 -5.925106172561645 95.04156843423843 -6.338221914768219Q93.63677624702453 -6.751337656974792 92.21183136463165 -6.819335703849792Q90.78688648223877 -6.8873337507247925 89.79107062339783 -6.8873337507247925H79.22312523365021Q75.44331523418427 -5.479035000801086 74.04780964851379 -4.31473976612091Q72.65230406284331 -3.1504445314407348 72.65230406284331 -1.7315948438644408Q72.65230406284331 -0.10441710948944091 74.15358500003813 0.6587690234184266Q75.65486593723297 1.421955156326294 78.150876288414 1.6608292579650878Q80.64688663959502 1.8997033596038817 83.63123499870301 1.8997033596038817ZM85.38645921707153 -31.947626094818116Q88.54581288814545 -31.947626094818116 90.22100761413574 -34.491122696399685Q91.89620234012604 -37.03461929798126 91.89620234012604 -41.58146195411682Q91.89620234012604 -46.086382813453675 90.20660820007325 -48.86187882900238Q88.51701406002044 -51.63737484455108 85.30390163898468 -51.63737484455108Q82.1861546087265 -51.63737484455108 80.46743886709213 -48.91147843837737Q78.74872312545776 -46.18558203220367 78.74872312545776 -41.659214844703676Q78.74872312545776 -38.646441407203675 79.49191863298415 -36.44998195409775Q80.23511414051056 -34.25352250099182 81.74438804626465 -33.10057429790497Q83.25366195201873 -31.947626094818116 85.38645921707153 -31.947626094818116Z M126.35497312545775 0.0V-14.899055156707764H142.79677195072173Q146.65819796562192 -14.899055156707764 149.70317468404767 -16.94670562505722Q152.74815140247344 -18.994356093406676 154.53489253520962 -24.330470702648164Q156.32163366794583 -29.666585311889648 156.32163366794583 -39.50590656280517Q156.32163366794583 -46.83227414131164 155.34130112886427 -51.6284059381485Q154.36096858978271 -56.42453773498535 152.46111425399778 -59.202913906574246Q150.56125991821287 -61.98129007816314 147.80428866863247 -63.141117460727685Q145.0473174190521 -64.30094484329223 141.4895555448532 -64.30094484329223H126.35497312545775V-79.2H140.7631395292282Q152.21957343578336 -79.2 159.78076495885847 -74.54687937498093Q167.34195648193358 -69.89375874996185 171.09959027051923 -61.113120625019064Q174.8572240591049 -52.33248250007629 174.8572240591049 -39.951686797142024Q174.8572240591049 -30.123213672637938 172.91304812192914 -23.179535079002378Q170.9688721847534 -16.23585648536682 167.62596292734145 -11.68833390712738Q164.28305366992947 -7.140811328887939 160.2010978889465 -4.590087969303131Q156.11914210796354 -2.039364609718323 151.75654038906094 -1.0196823048591614Q147.39393867015838 0.0 143.41437937259673 0.0ZM118.16352843761443 0.0V-79.2H136.3336635160446V0.0Z M176.58495015621182 0.0 196.79063398361203 -79.2H221.39215437412258L241.48967515468593 0.0H222.22318937301634L209.2793947649002 -64.85647015571594H208.45603640556334L195.7890285158157 0.0ZM189.93705953121182 -14.011443672180175V-26.44678117275238H228.98531742095943V-14.011443672180175Z M255.64805468559263 0.0 241.74272765636442 -79.2H261.49656085968013L269.09782577991484 -16.650781016349793H269.6149428892135L277.92410531044004 -79.2H299.205617108345L307.8555849981308 -16.650781016349793H308.31478421688075L315.79892226219175 -79.2H334.4833013248443L320.4128591394424 0.0H295.8864688253402L288.3443734359741 -62.05351890563965H287.9846936702728L280.1737943744659 0.0Z" fill="#10183A"/></svg>