<svg xmlns="http://www.w3.org/2000/svg" viewBox="0 0 64 64" width="64" height="64" xmlns:c2pa="http://c2pa.org/manifest"><metadata><c2pa:manifest>AAAWgmp1bWIAAAAeanVtZGMycGEAEQAQgAAAqgA4m3EDYzJwYQAAABZcanVtYgAAAEdqdW1kYzJtYQARABCAAACqADibcQN1cm46YzJwYTo2YTMyNTRiNy03MDU5LTRmY2YtYmIyZS1jNWUyZTM2NzdkNGEAAAADl2p1bWIAAAApanVtZGMyYXMAEQAQgAAAqgA4m3EDYzJwYS5hc3NlcnRpb25zAAAAALxqdW1iAAAARGp1bWRjYm9yABEAEIAAAKoAOJtxE2MycGEuaW5ncmVkaWVudC52MwAAAAAYYzJzaPjCi8i4tXCMvxwkUtsMvvAAAABwY2JvcqNpZGM6Zm9ybWF0bWltYWdlL3N2Zyt4bWxqaW5zdGFuY2VJRHgseG1wOmlpZDpkZmViNjBmMC00ZWQwLTQzNWQtOTk4NC0wYzhhMzE0ZjQ2ZDNscmVsYXRpb25zaGlwaHBhcmVudE9mAAAB4mp1bWIAAABBanVtZGNib3IAEQAQgAAAqgA4m3ETYzJwYS5hY3Rpb25zLnYyAAAAABhjMnNor00MiahmVITIK7H7D66I2gAAAZljYm9yomdhY3Rpb25zgqJmYWN0aW9ua2MycGEub3BlbmVkanBhcmFtZXRlcnOha2luZ3JlZGllbnRzgaJjdXJseC1zZWxmI2p1bWJmPWMycGEuYXNzZXJ0aW9ucy9jMnBhLmluZ3JlZGllbnQudjNkaGFzaFggmHUw2m6ZtBawruzMM6gTM7YHrLhQ5WO4SGxSu3SU55OkZmFjdGlvbngdY29tLmFudGhyb3BpYy5jbGF1ZGUucHJvdmlkZWRqcGFyYW1ldGVyc6F4H2NvbS5hbnRocm9waWMub3JpZ2luLWNvbmZpZGVuY2VndW5rbm93bmtkZXNjcmlwdGlvbnhmQ2xhdWRlIHByb3ZpZGVkIHRoaXMgZmlsZSBhdCB0aGUgcmVxdWVzdCBvZiBhIHVzZXIgYW5kIG1heSBoYXZlIGNyZWF0ZWQgb3IgbW9kaWZpZWQgdGhlIGZpbGUgY29udGVudHMubXNvZnR3YXJlQWdlbnShZG5hbWVmQ2xhdWRlcmFsbEFjdGlvbnNJbmNsdWRlZPUAAADIanVtYgAAAEBqdW1kY2JvcgARABCAAACqADibcRNjMnBhLmhhc2guZGF0YQAAAAAYYzJzaD/pI9mY4WkZ+arDET0ieogAAACAY2JvcqVjYWxnZnNoYTI1NmNwYWRNAAAAAAAAAAAAAAAAAGRoYXNoWCClkVbMQBpNmOvVtKFFivJSNm4pcuac9m5POiBMziPPt2RuYW1lbmp1bWJmIG1hbmlmZXN0amV4Y2x1c2lvbnOBomVzdGFydBiSZmxlbmd0aBkeBAAAAj5qdW1iAAAAJ2p1bWRjMmNsABEAEIAAAKoAOJtxA2MycGEuY2xhaW0udjIAAAACD2Nib3KlY2FsZ2ZzaGEyNTZpc2lnbmF0dXJleE1zZWxmI2p1bWJmPS9jMnBhL3VybjpjMnBhOjZhMzI1NGI3LTcwNTktNGZjZi1iYjJlLWM1ZTJlMzY3N2Q0YS9jMnBhLnNpZ25hdHVyZWppbnN0YW5jZUlEeCx4bXA6aWlkOmI2MTkxNDJkLWExMWQtNGE4ZC05OWI3LTU2ZTY3OTcyZWQwZnJjcmVhdGVkX2Fzc2VydGlvbnODomN1cmx4LXNlbGYjanVtYmY9YzJwYS5hc3NlcnRpb25zL2MycGEuaW5ncmVkaWVudC52M2RoYXNoWCCYdTDabpm0FrCu7MwzqBMztgesuFDlY7hIbFK7dJTnk6JjdXJseCpzZWxmI2p1bWJmPWMycGEuYXNzZXJ0aW9ucy9jMnBhLmFjdGlvbnMudjJkaGFzaFggMwE8r89QlECCb1cNWlb9MIZ3nJF4vkJKoCvyherIE/SiY3VybHgpc2VsZiNqdW1iZj1jMnBhLmFzc2VydGlvbnMvYzJwYS5oYXNoLmRhdGFkaGFzaFggVrXyz9TPUmLWixRktpzBrZN+vqRWErPOKuzgY/3tjm10Y2xhaW1fZ2VuZXJhdG9yX2luZm+jZG5hbWVvQW50aHJvcGljIEZpbGVzZ3ZlcnNpb25lMS4wLjBrc3BlY1ZlcnNpb25lMi40LjAAABA4anVtYgAAAChqdW1kYzJjcwARABCAAACqADibcQNjMnBhLnNpZ25hdHVyZQAAABAIY2JvctKEWQISogEmGCFZAgowggIGMIIBjaADAgECAhRA5aAK7sI50L64g/oGQgU9Z1UTADAKBggqhkjOPQQDAzBJMRcwFQYDVQQKEw5BbnRocm9waWMsIFBCQzEuMCwGA1UEAxMlQW50aHJvcGljIENvbnRlbnQgQ3JlZGVudGlhbHMgUm9vdCBDQTAeFw0yNjA4MDcxODQzNTZaFw0yODA4MDYxOTQzNTZaMEQxFzAVBgNVBAoTDkFudGhyb3BpYywgUEJDMSkwJwYDVQQDEyBBbnRocm9waWMgQ2xhdWRlIENvbnRlbnQgU2lnbmluZzBZMBMGByqGSM49AgEGCCqGSM49AwEHA0IABJh6CmvLUBgFFNU0vUKlOVtE6djd17L5SuwX0LemFisBM3dkd/3cyjxFA3Qo5S46fX0/ihY0VZ7mfb9KF703t5OjWDBWMA4GA1UdDwEB/wQEAwIHgDAVBgNVHSUEDjAMBgorBgEEAYPoXgIBMAwGA1UdEwEB/wQCMAAwHwYDVR0jBBgwFoAUzlHiBIFOZFsj+OPEz5o+nMHXXMIwCgYIKoZIzj0EAwMDZwAwZAIwMXMdFJ4BetLLVY7ORuE9noqbbAZOZn/aArXyTwFAZfKrPzxF2vPoJNf1+UCdg1XGAjBwX1zd9WGqYkqmL5SFqw1QySjr1zJfpJM9+1rdDwSPLMOPOjKuiXjoU/pUUeG9RwmhY3BhZFkNngAAAAAAAAAAAAAAAAAAAAAAAAAAAAAAAAAAAAAAAAAAAAAAAAAAAAAAAAAAAAAAAAAAAAAAAAAAAAAAAAAAAAAAAAAAAAAAAAAAAAAAAAAAAAAAAAAAAAAAAAAAAAAAAAAAAAAAAAAAAAAAAAAAAAAAAAAAAAAAAAAAAAAAAAAAAAAAAAAAAAAAAAAAAAAAAAAAAAAAAAAAAAAAAAAAAAAAAAAAAAAAAAAAAAAAAAAAAAAAAAAAAAAAAAAAAAAAAAAAAAAAAAAAAAAAAAAAAAAAAAAAAAAAAAAAAAAAAAAAAAAAAAAAAAAAAAAAAAAAAAAAAAAAAAAAAAAAAAAAAAAAAAAAAAAAAAAAAAAAAAAAAAAAAAAAAAAAAAAAAAAAAAAAAAAAAAAAAAAAAAAAAAAAAAAAAAAAAAAAAAAAAAAAAAAAAAAAAAAAAAAAAAAAAAAAAAAAAAAAAAAAAAAAAAAAAAAAAAAAAAAAAAAAAAAAAAAAAAAAAAAAAAAAAAAAAAAAAAAAAAAAAAAAAAAAAAAAAAAAAAAAAAAAAAAAAAAAAAAAAAAAAAAAAAAAAAAAAAAAAAAAAAAAAAAAAAAAAAAAAAAAAAAAAAAAAAAAAAAAAAAAAAAAAAAAAAAAAAAAAAAAAAAAAAAAAAAAAAAAAAAAAAAAAAAAAAAAAAAAAAAAAAAAAAAAAAAAAAAAAAAAAAAAAAAAAAAAAAAAAAAAAAAAAAAAAAAAAAAAAAAAAAAAAAAAAAAAAAAAAAAAAAAAAAAAAAAAAAAAAAAAAAAAAAAAAAAAAAAAAAAAAAAAAAAAAAAAAAAAAAAAAAAAAAAAAAAAAAAAAAAAAAAAAAAAAAAAAAAAAAAAAAAAAAAAAAAAAAAAAAAAAAAAAAAAAAAAAAAAAAAAAAAAAAAAAAAAAAAAAAAAAAAAAAAAAAAAAAAAAAAAAAAAAAAAAAAAAAAAAAAAAAAAAAAAAAAAAAAAAAAAAAAAAAAAAAAAAAAAAAAAAAAAAAAAAAAAAAAAAAAAAAAAAAAAAAAAAAAAAAAAAAAAAAAAAAAAAAAAAAAAAAAAAAAAAAAAAAAAAAAAAAAAAAAAAAAAAAAAAAAAAAAAAAAAAAAAAAAAAAAAAAAAAAAAAAAAAAAAAAAAAAAAAAAAAAAAAAAAAAAAAAAAAAAAAAAAAAAAAAAAAAAAAAAAAAAAAAAAAAAAAAAAAAAAAAAAAAAAAAAAAAAAAAAAAAAAAAAAAAAAAAAAAAAAAAAAAAAAAAAAAAAAAAAAAAAAAAAAAAAAAAAAAAAAAAAAAAAAAAAAAAAAAAAAAAAAAAAAAAAAAAAAAAAAAAAAAAAAAAAAAAAAAAAAAAAAAAAAAAAAAAAAAAAAAAAAAAAAAAAAAAAAAAAAAAAAAAAAAAAAAAAAAAAAAAAAAAAAAAAAAAAAAAAAAAAAAAAAAAAAAAAAAAAAAAAAAAAAAAAAAAAAAAAAAAAAAAAAAAAAAAAAAAAAAAAAAAAAAAAAAAAAAAAAAAAAAAAAAAAAAAAAAAAAAAAAAAAAAAAAAAAAAAAAAAAAAAAAAAAAAAAAAAAAAAAAAAAAAAAAAAAAAAAAAAAAAAAAAAAAAAAAAAAAAAAAAAAAAAAAAAAAAAAAAAAAAAAAAAAAAAAAAAAAAAAAAAAAAAAAAAAAAAAAAAAAAAAAAAAAAAAAAAAAAAAAAAAAAAAAAAAAAAAAAAAAAAAAAAAAAAAAAAAAAAAAAAAAAAAAAAAAAAAAAAAAAAAAAAAAAAAAAAAAAAAAAAAAAAAAAAAAAAAAAAAAAAAAAAAAAAAAAAAAAAAAAAAAAAAAAAAAAAAAAAAAAAAAAAAAAAAAAAAAAAAAAAAAAAAAAAAAAAAAAAAAAAAAAAAAAAAAAAAAAAAAAAAAAAAAAAAAAAAAAAAAAAAAAAAAAAAAAAAAAAAAAAAAAAAAAAAAAAAAAAAAAAAAAAAAAAAAAAAAAAAAAAAAAAAAAAAAAAAAAAAAAAAAAAAAAAAAAAAAAAAAAAAAAAAAAAAAAAAAAAAAAAAAAAAAAAAAAAAAAAAAAAAAAAAAAAAAAAAAAAAAAAAAAAAAAAAAAAAAAAAAAAAAAAAAAAAAAAAAAAAAAAAAAAAAAAAAAAAAAAAAAAAAAAAAAAAAAAAAAAAAAAAAAAAAAAAAAAAAAAAAAAAAAAAAAAAAAAAAAAAAAAAAAAAAAAAAAAAAAAAAAAAAAAAAAAAAAAAAAAAAAAAAAAAAAAAAAAAAAAAAAAAAAAAAAAAAAAAAAAAAAAAAAAAAAAAAAAAAAAAAAAAAAAAAAAAAAAAAAAAAAAAAAAAAAAAAAAAAAAAAAAAAAAAAAAAAAAAAAAAAAAAAAAAAAAAAAAAAAAAAAAAAAAAAAAAAAAAAAAAAAAAAAAAAAAAAAAAAAAAAAAAAAAAAAAAAAAAAAAAAAAAAAAAAAAAAAAAAAAAAAAAAAAAAAAAAAAAAAAAAAAAAAAAAAAAAAAAAAAAAAAAAAAAAAAAAAAAAAAAAAAAAAAAAAAAAAAAAAAAAAAAAAAAAAAAAAAAAAAAAAAAAAAAAAAAAAAAAAAAAAAAAAAAAAAAAAAAAAAAAAAAAAAAAAAAAAAAAAAAAAAAAAAAAAAAAAAAAAAAAAAAAAAAAAAAAAAAAAAAAAAAAAAAAAAAAAAAAAAAAAAAAAAAAAAAAAAAAAAAAAAAAAAAAAAAAAAAAAAAAAAAAAAAAAAAAAAAAAAAAAAAAAAAAAAAAAAAAAAAAAAAAAAAAAAAAAAAAAAAAAAAAAAAAAAAAAAAAAAAAAAAAAAAAAAAAAAAAAAAAAAAAAAAAAAAAAAAAAAAAAAAAAAAAAAAAAAAAAAAAAAAAAAAAAAAAAAAAAAAAAAAAAAAAAAAAAAAAAAAAAAAAAAAAAAAAAAAAAAAAAAAAAAAAAAAAAAAAAAAAAAAAAAAAAAAAAAAAAAAAAAAAAAAAAAAAAAAAAAAAAAAAAAAAAAAAAAAAAAAAAAAAAAAAAAAAAAAAAAAAAAAAAAAAAAAAAAAAAAAAAAAAAAAAAAAAAAAAAAAAAAAAAAAAAAAAAAAAAAAAAAAAAAAAAAAAAAAAAAAAAAAAAAAAAAAAAAAAAAAAAAAAAAAAAAAAAAAAAAAAAAAAAAAAAAAAAAAAAAAAAAAAAAAAAAAAAAAAAAAAAAAAAAAAAAAAAAAAAAAAAAAAAAAAAAAAAAAAAAAAAAAAAAAAAAAAAAAAAAAAAAAAAAAAAAAAAAAAAAAAAAAAAAAAAAAAAAAAAAAAAAAAAAAAAAAAAAAAAAAAAAAAAAAAAAAAAAAAAAAAAAAAAAAAAAAAAAAAAAAAAAAAAAAAAAAAAAAAAAAAAAAAAAAAAAAAAAAAAAAAAAAAAAAAAAAAAAAAAAAAAAAAAAAAAAAAAAAAAAAAAAAAAAAAAAAAAAAAAAAAAAAAAAAAAAAAAAAAAAAAAAAAAAAAAAAAAAAAAAAAAAAAAAAAAAAAAAAAAAAAAAAAAAAAAAAAAAAAAAAAAAAAAAAAAAAAAAAAAAAAAAAAAAAAAAAAAAAAAAAAAAAAAAAAAAAAAAAAAAAAAAAAAAAAAAAAAAAAAAAAAAAAAAAAAAAAAAAAAAAAAAAAAAAAAAAAAAAAAAAAAAAAAAAAAAAAAAAAAAAAAAAAAAAAAAAAAAAAAAAAAAAAAAAAAAAAAAAAAAAAAAAAAAAAAAAAAAAAAAAAAAAAAAAAAAAAAAAAAAAAAAAAAAAAAAAAAAAAAAAAAAAAAAAAAAAAAAAAAAAAAAAAAAAAAAAAAAAAAAAAAAAAAAAAAAAAAAAAAAAAAAAAAAAAAAAAAAAAAAAAAAAAAAAAAAAAAAAAAAAAAAAAAAAAAAAAAAAAAAAAAAAAAAAAAAAAAAAAAAAAAAAAAAAAAAAAAAAAAAAAAAAAAAAAAAAAAAAAAAAAAAAAAAAAAAAAAAAAAAAAAAAAAAAAAAAAAAAAAAAAAAAAAAAAAAAAAAAAAAAAAAAAAAAAAAAAAAAAAAAAAAAAAAAAAAAAAAAAAAAAAAAAAAAAAAAAAAAAAAAAAAAAAAAAAAAAAAAAAAAAAAAAAAAAAAAAAAAAAAAAAAAAAAAAAAAAAAAAAAAAAAAAAAAAAAAAAAAAAAAAAAAAAAAAAAAAAAAAAAAAAAAAAAAAAAAAAAAAAAAAAAAAAAAAAAAAAAAAAAAAAAAAAAAAAAAAAAAAAAAAAAAAAAAAAAAAAAAAAAAAAAAAAAAAAAAAAAAAAAAAAAAAAAAAAAAAAAAAAAAAAAAAAAAAAAAAAAAAAAAAAAAAAAAAAAAAAAAAAAAAAAAAAAAAAAAAAAAAAAAAAAAAAAAAAAAAAAAAAAAAAAAAAAAAAAAAAAAAAAAAAAAAAAAAAAAAAAAAAAAAAAAAAAAAAAAAAAAAAAAAAAAAAAAAAAAAAAAAAAAAAAAAAAAAAAAAAAAAAAAAAAAAAAAAAAAAAAAAAAAAAAAAAAAAAAAAAAAAAAAAAAAAAAAAAAAAAAAAAAAAAAAAAAAAAAAAAAAAAAAAAAAAAAAAAAAAAAAAAAAAAAAAAAAAAAAAAAAAAAAAAAAAAAAAAAAAAAAAAAAAAAAAAAAAAAAAAAAAAAAAAAAAAAAAAAAAAAAAAAAAAAAAAAAAAAAAAPZYQBHOh/CPZGuFay6Dhd+yf3UIXMfJ+bl2WyKzpf/v/j1VEcXKaM5jXSQ2zWqCRIIpOVnf923ufqIJ050b5Sn1ejc=</c2pa:manifest></metadata><rect width="64" height="64" rx="14" fill="#10183A"/><path d="M10.00,18.00 L10.47,18.00 L10.95,18.00 L11.43,18.00 L11.90,18.00 L12.38,18.00 L12.85,18.00 L13.32,18.00 L13.80,18.00 L14.28,18.00 L14.75,18.00 L15.23,18.00 L15.70,18.00 L16.18,18.00 L16.65,18.00 L17.12,18.00 L17.60,18.00 L18.07,18.00 L18.55,18.00 L19.02,18.00 L19.50,18.00 L19.98,17.75 L20.45,16.52 L20.92,15.32 L21.40,14.20 L21.88,13.18 L22.35,12.29 L22.83,11.55 L23.30,10.98 L23.77,10.60 L24.25,10.42 L24.73,10.44 L25.20,10.66 L25.67,11.08 L26.15,11.68 L26.62,12.45 L27.10,13.37 L27.57,14.42 L28.05,15.56 L28.52,16.76 L29.00,18.00 L29.47,19.24 L29.95,20.44 L30.43,21.58 L30.90,22.63 L31.38,23.55 L31.85,24.32 L32.33,24.92 L32.80,25.34 L33.28,25.56 L33.75,25.58 L34.22,25.40 L34.70,25.02 L35.17,24.45 L35.65,23.71 L36.12,22.82 L36.60,21.80 L37.08,20.68 L37.55,19.48 L38.03,18.25 L38.50,18.00 L38.97,18.00 L39.45,18.00 L39.92,18.00 L40.40,18.00 L40.88,18.00 L41.35,18.00 L41.83,18.00 L42.30,18.00 L42.77,18.00 L43.25,18.00 L43.73,18.00 L44.20,18.00 L44.67,18.00 L45.15,18.00 L45.62,18.00 L46.10,18.00 L46.58,18.00 L47.05,18.00 L47.52,18.00 L48.00,18.00 L48.00,18.48 L48.00,18.95 L48.00,19.43 L48.00,19.90 L48.00,20.38 L48.00,20.85 L48.00,21.32 L48.00,21.80 L48.00,22.27 L48.00,22.75 L48.00,23.23 L48.00,23.70 L48.00,24.18 L48.00,24.65 L48.00,25.12 L48.00,25.60 L48.00,26.07 L48.00,26.55 L48.00,27.02 L48.00,27.50 L48.25,27.98 L49.48,28.45 L50.68,28.92 L51.80,29.40 L52.82,29.88 L53.71,30.35 L54.45,30.83 L55.02,31.30 L55.40,31.77 L55.58,32.25 L55.56,32.73 L55.34,33.20 L54.92,33.67 L54.32,34.15 L53.55,34.62 L52.63,35.10 L51.58,35.58 L50.44,36.05 L49.24,36.52 L48.00,37.00 L46.76,37.47 L45.56,37.95 L44.42,38.42 L43.37,38.90 L42.45,39.38 L41.68,39.85 L41.08,40.33 L40.66,40.80 L40.44,41.28 L40.42,41.75 L40.60,42.22 L40.98,42.70 L41.55,43.17 L42.29,43.65 L43.18,44.12 L44.20,44.60 L45.32,45.08 L46.52,45.55 L47.75,46.03 L48.00,46.50 L48.00,46.97 L48.00,47.45 L48.00,47.92 L48.00,48.40 L48.00,48.88 L48.00,49.35 L48.00,49.83 L48.00,50.30 L48.00,50.77 L48.00,51.25 L48.00,51.73 L48.00,52.20 L48.00,52.67 L48.00,53.15 L48.00,53.62 L48.00,54.10 L48.00,54.58 L48.00,55.05 L48.00,55.52 L48.00,56.00 L47.52,56.00 L47.05,56.00 L46.58,56.00 L46.10,56.00 L45.62,56.00 L45.15,56.00 L44.67,56.00 L44.20,56.00 L43.73,56.00 L43.25,56.00 L42.77,56.00 L42.30,56.00 L41.83,56.00 L41.35,56.00 L40.88,56.00 L40.40,56.00 L39.92,56.00 L39.45,56.00 L38.97,56.00 L38.50,56.00 L38.03,56.00 L37.55,56.00 L37.08,56.00 L36.60,56.00 L36.12,56.00 L35.65,56.00 L35.17,56.00 L34.70,56.00 L34.22,56.00 L33.75,56.00 L33.28,56.00 L32.80,56.00 L32.33,56.00 L31.85,56.00 L31.38,56.00 L30.90,56.00 L30.43,56.00 L29.95,56.00 L29.47,56.00 L29.00,56.00 L28.53,56.00 L28.05,56.00 L27.57,56.00 L27.10,56.00 L26.62,56.00 L26.15,56.00 L25.67,56.00 L25.20,56.00 L24.72,56.00 L24.25,56.00 L23.78,56.00 L23.30,56.00 L22.83,56.00 L22.35,56.00 L21.88,56.00 L21.40,56.00 L20.92,56.00 L20.45,56.00 L19.97,56.00 L19.50,56.00 L19.03,56.00 L18.55,56.00 L18.08,56.00 L17.60,56.00 L17.12,56.00 L16.65,56.00 L16.17,56.00 L15.70,56.00 L15.22,56.00 L14.75,56.00 L14.28,56.00 L13.80,56.00 L13.33,56.00 L12.85,56.00 L12.38,56.00 L11.90,56.00 L11.42,56.00 L10.95,56.00 L10.47,56.00 L10.00,56.00 L10.00,55.52 L10.00,55.05 L10.00,54.58 L10.00,54.10 L10.00,53.62 L10.00,53.15 L10.00,52.67 L10.00,52.20 L10.00,51.73 L10.00,51.25 L10.00,50.77 L10.00,50.30 L10.00,49.83 L10.00,49.35 L10.00,48.88 L10.00,48.40 L10.00,47.92 L10.00,47.45 L10.00,46.97 L10.00,46.50 L10.00,46.03 L10.00,45.55 L10.00,45.08 L10.00,44.60 L10.00,44.12 L10.00,43.65 L10.00,43.17 L10.00,42.70 L10.00,42.22 L10.00,41.75 L10.00,41.28 L10.00,40.80 L10.00,40.33 L10.00,39.85 L10.00,39.38 L10.00,38.90 L10.00,38.42 L10.00,37.95 L10.00,37.47 L10.00,37.00 L10.00,36.53 L10.00,36.05 L10.00,35.58 L10.00,35.10 L10.00,34.62 L10.00,34.15 L10.00,33.67 L10.00,33.20 L10.00,32.72 L10.00,32.25 L10.00,31.78 L10.00,31.30 L10.00,30.83 L10.00,30.35 L10.00,29.88 L10.00,29.40 L10.00,28.92 L10.00,28.45 L10.00,27.97 L10.00,27.50 L10.00,27.03 L10.00,26.55 L10.00,26.08 L10.00,25.60 L10.00,25.12 L10.00,24.65 L10.00,24.17 L10.00,23.70 L10.00,23.22 L10.00,22.75 L10.00,22.28 L10.00,21.80 L10.00,21.33 L10.00,20.85 L10.00,20.38 L10.00,19.90 L10.00,19.43 L10.00,18.95 L10.00,18.47Z" fill="#FFC93C"/></svg>